<?xml version="1.0" encoding="utf-8"?>
<!-- Generator: Adobe Illustrator 16.0.0, SVG Export Plug-In . SVG Version: 6.00 Build 0)  -->
<!DOCTYPE svg PUBLIC "-//W3C//DTD SVG 1.1//EN" "http://www.w3.org/Graphics/SVG/1.1/DTD/svg11.dtd">
<svg version="1.1" id="Layer_1" xmlns="http://www.w3.org/2000/svg" xmlns:xlink="http://www.w3.org/1999/xlink" x="0px" y="0px"
	 width="48px" height="48px" viewBox="0 0 48 48" enable-background="new 0 0 48 48" xml:space="preserve">
<g>
	<linearGradient id="SVGID_1_" gradientUnits="userSpaceOnUse" x1="4.882813e-004" y1="4.882813e-004" x2="48.0009" y2="48.0009">
		<stop  offset="0" style="stop-color:#2F2965"/>
		<stop  offset="1" style="stop-color:#2C2B53"/>
	</linearGradient>
	<rect opacity="0.95" fill="url(#SVGID_1_)" width="48" height="48"/>
	<g display="none">
		
			<image display="inline" overflow="visible" opacity="0.4" width="167" height="164" xlink:href="A2510060.png"  transform="matrix(1 0 0 1 -90.9761 -36.9761)">
		</image>
		<g display="inline">
			<g>
				<linearGradient id="SVGID_2_" gradientUnits="userSpaceOnUse" x1="-86.6646" y1="-33.4092" x2="71.707" y2="121.3179">
					<stop  offset="0" style="stop-color:#D199FE"/>
					<stop  offset="1" style="stop-color:#C179FF"/>
				</linearGradient>
				<path fill="url(#SVGID_2_)" d="M-86.664-33.409v154.727H71.707V-33.409H-86.664z M59.117,109.059H-73.742V-20.819H59.117
					V109.059z"/>
			</g>
		</g>
	</g>
	<g>
		<g opacity="0.1">
			<path d="M12.078,29.563l-1.891,6.415h-4.14l7.041-22.639h5.119l7.14,22.639h-4.304l-1.988-6.415H12.078z M18.369,26.438
				l-1.728-5.576c-0.424-1.377-0.782-2.922-1.108-4.232h-0.065c-0.326,1.311-0.652,2.89-1.043,4.232l-1.694,5.576H18.369z"/>
		</g>
		<g>
			<linearGradient id="SVGID_3_" gradientUnits="userSpaceOnUse" x1="6.2041" y1="23.333" x2="41.1435" y2="23.333">
				<stop  offset="0" style="stop-color:#D199FE"/>
				<stop  offset="1" style="stop-color:#C179FF"/>
			</linearGradient>
			<path fill="url(#SVGID_3_)" d="M12.078,28.237l-1.891,6.415h-4.14l7.041-22.639h5.119l7.14,22.639h-4.304l-1.988-6.415H12.078z
				 M18.369,25.113l-1.728-5.576c-0.424-1.377-0.782-2.922-1.108-4.232h-0.065c-0.326,1.311-0.652,2.89-1.043,4.232l-1.694,5.576
				H18.369z"/>
		</g>
	</g>
	<g>
		<g opacity="0.1">
			<path d="M30.66,28.958c0.098,2.956,2.347,4.232,4.889,4.232c1.858,0,3.195-0.27,4.401-0.74l0.587,2.855
				c-1.369,0.571-3.26,1.042-5.543,1.042c-5.15,0-8.182-3.292-8.182-8.297c0-4.534,2.674-8.8,7.76-8.8
				c5.182,0,6.845,4.366,6.845,7.96c0,0.772-0.065,1.377-0.13,1.747H30.66z M37.636,26.068c0.032-1.511-0.62-3.996-3.292-3.996
				c-2.479,0-3.521,2.317-3.684,3.996H37.636z"/>
		</g>
		<g>
			<linearGradient id="SVGID_4_" gradientUnits="userSpaceOnUse" x1="6.2031" y1="26.4746" x2="41.1426" y2="26.4746">
				<stop  offset="0" style="stop-color:#D199FE"/>
				<stop  offset="1" style="stop-color:#C179FF"/>
			</linearGradient>
			<path fill="url(#SVGID_4_)" d="M30.66,27.633c0.098,2.956,2.347,4.232,4.889,4.232c1.858,0,3.195-0.27,4.401-0.74l0.587,2.855
				c-1.369,0.571-3.26,1.042-5.543,1.042c-5.15,0-8.182-3.292-8.182-8.297c0-4.534,2.674-8.8,7.76-8.8
				c5.182,0,6.845,4.366,6.845,7.96c0,0.772-0.065,1.377-0.13,1.747H30.66z M37.636,24.743c0.032-1.511-0.62-3.996-3.292-3.996
				c-2.479,0-3.521,2.317-3.684,3.996H37.636z"/>
		</g>
	</g>
</g>
</svg>
