<?xml version="1.0" encoding="utf-8"?>
<!-- Generator: Adobe Illustrator 16.0.0, SVG Export Plug-In . SVG Version: 6.00 Build 0)  -->
<!DOCTYPE svg PUBLIC "-//W3C//DTD SVG 1.1//EN" "http://www.w3.org/Graphics/SVG/1.1/DTD/svg11.dtd">
<svg version="1.1" id="Layer_1" xmlns="http://www.w3.org/2000/svg" xmlns:xlink="http://www.w3.org/1999/xlink" x="0px" y="0px"
	 width="48px" height="48px" viewBox="0 0 48 48" enable-background="new 0 0 48 48" xml:space="preserve">
<g>
	<linearGradient id="SVGID_1_" gradientUnits="userSpaceOnUse" x1="-0.2241" y1="-0.2583" x2="48.2258" y2="48.1916">
		<stop  offset="0" style="stop-color:#32297C"/>
		<stop  offset="1" style="stop-color:#282761"/>
	</linearGradient>
	<rect x="0" y="-0.484" opacity="0.95" fill="url(#SVGID_1_)" width="48" height="48.9"/>
	<g display="none">
		
			<image display="inline" overflow="visible" opacity="0.4" width="56" height="57" xlink:href="EA2AB560.png"  transform="matrix(1 0 0 1 -3.9761 -2.9761)">
		</image>
		<g display="inline">
			<g>
				<linearGradient id="SVGID_2_" gradientUnits="userSpaceOnUse" x1="-0.2441" y1="0.8926" x2="48.2446" y2="48.2655">
					<stop  offset="0" style="stop-color:#95C8FD"/>
					<stop  offset="1" style="stop-color:#73B4F4"/>
				</linearGradient>
				<path fill="url(#SVGID_2_)" d="M0,0.643v47.873h48V0.643H0z M44.185,44.723H3.916V4.538h40.269V44.723z"/>
			</g>
		</g>
	</g>
	<g>
		<g opacity="0.1">
			<path d="M11.608,13.711c1.403-0.268,3.35-0.469,5.998-0.469c2.872,0,4.979,0.636,6.35,1.842c1.276,1.104,2.105,2.88,2.105,4.99
				c0,2.144-0.637,3.918-1.85,5.125c-1.563,1.641-4.021,2.412-6.797,2.412c-0.733,0-1.403-0.034-1.915-0.134v8.506h-3.892V13.711z
				 M15.5,24.229c0.479,0.134,1.118,0.168,1.915,0.168c2.935,0,4.723-1.509,4.723-4.154c0-2.512-1.66-3.852-4.373-3.852
				c-1.084,0-1.851,0.102-2.265,0.201V24.229z"/>
		</g>
		<g>
			<linearGradient id="SVGID_3_" gradientUnits="userSpaceOnUse" x1="11.4702" y1="23.2881" x2="37.3727" y2="23.2881">
				<stop  offset="0" style="stop-color:#95C8FD"/>
				<stop  offset="1" style="stop-color:#73B4F4"/>
			</linearGradient>
			<path fill="url(#SVGID_3_)" d="M11.608,12.386c1.403-0.268,3.35-0.469,5.998-0.469c2.872,0,4.979,0.636,6.35,1.842
				c1.276,1.104,2.105,2.88,2.105,4.99c0,2.144-0.637,3.918-1.85,5.125c-1.563,1.641-4.021,2.412-6.797,2.412
				c-0.733,0-1.403-0.034-1.915-0.134v8.506h-3.892V12.386z M15.5,22.903c0.479,0.134,1.118,0.168,1.915,0.168
				c2.935,0,4.723-1.509,4.723-4.154c0-2.512-1.66-3.852-4.373-3.852c-1.084,0-1.851,0.102-2.265,0.201V22.903z"/>
		</g>
	</g>
	<g>
		<g opacity="0.1">
			<path d="M27.272,32.199c0.895,0.57,2.585,1.172,3.99,1.172c1.723,0,2.487-0.735,2.487-1.807c0-1.106-0.638-1.677-2.553-2.38
				c-3.03-1.105-4.307-2.846-4.274-4.755c0-2.88,2.265-5.124,5.871-5.124c1.722,0,3.222,0.469,4.115,0.971l-0.765,2.915
				c-0.671-0.402-1.915-0.938-3.287-0.938c-1.403,0-2.17,0.703-2.17,1.708c0,1.038,0.733,1.541,2.712,2.278
				c2.809,1.07,4.116,2.578,4.148,4.988c0,2.949-2.202,5.127-6.318,5.127c-1.882,0-3.573-0.503-4.722-1.173L27.272,32.199z"/>
		</g>
		<g>
			<linearGradient id="SVGID_4_" gradientUnits="userSpaceOnUse" x1="11.4702" y1="26.5039" x2="37.3753" y2="26.5039">
				<stop  offset="0" style="stop-color:#95C8FD"/>
				<stop  offset="1" style="stop-color:#73B4F4"/>
			</linearGradient>
			<path fill="url(#SVGID_4_)" d="M27.272,30.874c0.895,0.57,2.585,1.172,3.99,1.172c1.723,0,2.487-0.735,2.487-1.807
				c0-1.106-0.638-1.677-2.553-2.38c-3.03-1.105-4.307-2.846-4.274-4.755c0-2.88,2.265-5.124,5.871-5.124
				c1.722,0,3.222,0.469,4.115,0.971l-0.765,2.915c-0.671-0.402-1.915-0.938-3.287-0.938c-1.403,0-2.17,0.703-2.17,1.708
				c0,1.038,0.733,1.54,2.712,2.277c2.809,1.071,4.116,2.579,4.148,4.989c0,2.949-2.202,5.127-6.318,5.127
				c-1.882,0-3.573-0.503-4.722-1.173L27.272,30.874z"/>
		</g>
	</g>
</g>
</svg>
